<svg aria-hidden="true" xmlns="http://www.w3.org/2000/svg" xmlns:xlink="http://www.w3.org/1999/xlink"><symbol viewBox="0 0 26 26" fill="none" id="arrow" xmlns="http://www.w3.org/2000/svg">
<path d="M21.6553 13C21.6553 12.6986 21.5549 12.4475 21.354 12.2466L19.8306 10.7232L13.7703 4.66291C13.5694 4.46202 13.3183 4.36157 13.017 4.36157C12.7156 4.36157 12.4645 4.46202 12.2636 4.66291L10.7402 6.18635C10.5393 6.38724 10.4388 6.63836 10.4388 6.9397C10.4388 7.24104 10.5393 7.49215 10.7402 7.69305L13.9042 10.8571H5.50021C5.21003 10.8571 4.95892 10.9631 4.74686 11.1752C4.53481 11.3872 4.42878 11.6384 4.42878 11.9285V14.0714C4.42878 14.3616 4.53481 14.6127 4.74686 14.8247C4.95892 15.0368 5.21003 15.1428 5.50021 15.1428H13.9042L10.7402 18.3069C10.5281 18.5189 10.4221 18.7701 10.4221 19.0602C10.4221 19.3504 10.5281 19.6015 10.7402 19.8136L12.2636 21.337C12.4645 21.5379 12.7156 21.6384 13.017 21.6384C13.3183 21.6384 13.5694 21.5379 13.7703 21.337L19.8306 15.2768L21.354 13.7533C21.5549 13.5524 21.6553 13.3013 21.6553 13ZM25.8574 13C25.8574 15.3326 25.2826 17.4838 24.133 19.4536C22.9835 21.4235 21.4238 22.9832 19.4539 24.1328C17.484 25.2823 15.3328 25.8571 13.0002 25.8571C10.6676 25.8571 8.51639 25.2823 6.54653 24.1328C4.57666 22.9832 3.01695 21.4235 1.8674 19.4536C0.717843 17.4838 0.143066 15.3326 0.143066 13C0.143066 10.6674 0.717843 8.51615 1.8674 6.54628C3.01695 4.57642 4.57666 3.01671 6.54653 1.86715C8.51639 0.717599 10.6676 0.142822 13.0002 0.142822C15.3328 0.142822 17.484 0.717599 19.4539 1.86715C21.4238 3.01671 22.9835 4.57642 24.133 6.54628C25.2826 8.51615 25.8574 10.6674 25.8574 13Z" fill="currentColor"/>
</symbol><symbol viewBox="0 0 22 20" fill="none" id="check" xmlns="http://www.w3.org/2000/svg">
<path d="M7 9L10 12L21 1" stroke="currentColor" stroke-width="2" stroke-linecap="round" stroke-linejoin="round"/>
<path d="M19 10V17C19 17.5304 18.7893 18.0391 18.4142 18.4142C18.0391 18.7893 17.5304 19 17 19H3C2.46957 19 1.96086 18.7893 1.58579 18.4142C1.21071 18.0391 1 17.5304 1 17V3C1 2.46957 1.21071 1.96086 1.58579 1.58579C1.96086 1.21071 2.46957 1 3 1H14" stroke="currentColor" stroke-width="2" stroke-linecap="round" stroke-linejoin="round"/>
</symbol><symbol viewBox="0 0 23 15" fill="none" id="mail" xmlns="http://www.w3.org/2000/svg">
<path d="M0.724121 1.3965V13.6137L6.83274 7.50512L0.724121 1.3965ZM1.93791 0.172363L9.67154 7.90598C10.6483 8.88271 12.3517 8.88271 13.3284 7.90598L21.0621 0.172363H1.93791Z" fill="currentColor"/>
<path d="M14.5474 9.12493C13.7344 9.93873 12.6517 10.3879 11.5 10.3879C10.3482 10.3879 9.26548 9.93873 8.45255 9.12493L8.05169 8.72407L1.94824 14.8275H21.0517L14.9482 8.72407L14.5474 9.12493ZM16.1672 7.5051L22.2758 13.6137V1.39648L16.1672 7.5051Z" fill="currentColor"/>
</symbol><symbol viewBox="0 0 16 20" fill="none" id="map" xmlns="http://www.w3.org/2000/svg">
<path d="M8 0C5.879 0.00238211 3.84555 0.846002 2.34578 2.34578C0.846002 3.84555 0.00238211 5.879 0 8C0 11.255 2.363 13.958 4.866 16.819C5.658 17.725 6.478 18.662 7.208 19.61C7.30142 19.7312 7.4214 19.8293 7.55871 19.8968C7.69602 19.9644 7.84699 19.9995 8 19.9995C8.15301 19.9995 8.30398 19.9644 8.44129 19.8968C8.5786 19.8293 8.69858 19.7312 8.792 19.61C9.522 18.662 10.342 17.725 11.134 16.819C13.637 13.958 16 11.255 16 8C15.9976 5.879 15.154 3.84555 13.6542 2.34578C12.1544 0.846002 10.121 0.00238211 8 0ZM8 11C7.40666 11 6.82664 10.8241 6.33329 10.4944C5.83994 10.1648 5.45542 9.69623 5.22836 9.14805C5.0013 8.59987 4.94189 7.99667 5.05764 7.41473C5.1734 6.83279 5.45912 6.29824 5.87868 5.87868C6.29824 5.45912 6.83279 5.1734 7.41473 5.05764C7.99667 4.94189 8.59987 5.0013 9.14805 5.22836C9.69623 5.45542 10.1648 5.83994 10.4944 6.33329C10.8241 6.82664 11 7.40666 11 8C11 8.79565 10.6839 9.55871 10.1213 10.1213C9.55871 10.6839 8.79565 11 8 11Z" fill="currentColor"/>
</symbol><symbol viewBox="0 0 158 140" fill="none" id="message" xmlns="http://www.w3.org/2000/svg">
<path d="M151.75 0.3125H6.25C4.64212 0.3125 3.1001 0.951227 1.96316 2.08817C0.826226 3.22511 0.1875 4.76712 0.1875 6.375V103.375C0.1875 104.983 0.826226 106.525 1.96316 107.662C3.1001 108.799 4.64212 109.438 6.25 109.438H48.6875V133.688C48.6852 134.801 48.9894 135.893 49.5669 136.845C50.1444 137.797 50.9728 138.571 51.9612 139.083C52.8295 139.511 53.7823 139.739 54.75 139.75C56.0135 139.742 57.2428 139.339 58.2662 138.598L99.1275 109.438H151.75C153.358 109.438 154.9 108.799 156.037 107.662C157.174 106.525 157.812 104.983 157.812 103.375V6.375C157.812 4.76712 157.174 3.22511 156.037 2.08817C154.9 0.951227 153.358 0.3125 151.75 0.3125ZM145.688 97.3125H97.1875C95.9199 97.2947 94.6826 97.7 93.6713 98.4644L60.8125 121.926V103.375C60.8125 101.767 60.1738 100.225 59.0368 99.0882C57.8999 97.9512 56.3579 97.3125 54.75 97.3125H12.3125V12.4375H145.688V97.3125Z" fill="currentColor"/>
<path d="M30.5 42.75H127.5C129.108 42.75 130.65 42.1113 131.787 40.9743C132.924 39.8374 133.562 38.2954 133.562 36.6875C133.562 35.0796 132.924 33.5376 131.787 32.4007C130.65 31.2637 129.108 30.625 127.5 30.625H30.5C28.8921 30.625 27.3501 31.2637 26.2132 32.4007C25.0762 33.5376 24.4375 35.0796 24.4375 36.6875C24.4375 38.2954 25.0762 39.8374 26.2132 40.9743C27.3501 42.1113 28.8921 42.75 30.5 42.75ZM30.5 79.125H127.5C129.108 79.125 130.65 78.4863 131.787 77.3493C132.924 76.2124 133.562 74.6704 133.562 73.0625C133.562 71.4546 132.924 69.9126 131.787 68.7757C130.65 67.6387 129.108 67 127.5 67H30.5C28.8921 67 27.3501 67.6387 26.2132 68.7757C25.0762 69.9126 24.4375 71.4546 24.4375 73.0625C24.4375 74.6704 25.0762 76.2124 26.2132 77.3493C27.3501 78.4863 28.8921 79.125 30.5 79.125Z" fill="currentColor"/>
</symbol><symbol viewBox="0 0 29 25" fill="none" id="telegram" xmlns="http://www.w3.org/2000/svg">
<path d="M11.3791 16.3438L10.8994 23.0911C11.5857 23.0911 11.883 22.7963 12.2394 22.4422L15.4572 19.367L22.1248 24.2499C23.3476 24.9314 24.2092 24.5725 24.539 23.125L28.9156 2.61712L28.9168 2.61592C29.3047 0.80825 28.2631 0.101375 27.0717 0.544833L1.3463 10.394C-0.40941 11.0755 -0.382827 12.0542 1.04784 12.4977L7.6248 14.5434L22.9018 4.98425C23.6207 4.50817 24.2744 4.77158 23.7367 5.24767L11.3791 16.3438Z" fill="currentColor"/>
</symbol><symbol viewBox="0 0 19 19" fill="none" id="tell" xmlns="http://www.w3.org/2000/svg">
<path d="M17.3078 13.3818C16.5949 12.6494 14.5685 11.2773 13.2404 11.2773C12.9328 11.2773 12.6642 11.3457 12.4445 11.4873C11.7951 11.9023 11.2775 12.2246 11.0285 12.2246C10.8917 12.2246 10.7453 12.1025 10.423 11.8242L10.3693 11.7754C9.47572 10.999 9.28529 10.7988 8.93861 10.4375L8.85072 10.3447C8.78724 10.2812 8.73353 10.2227 8.67982 10.1689C8.37709 9.85645 8.15736 9.63184 7.38099 8.75293L7.34681 8.71387C6.97572 8.29394 6.73158 8.02051 6.71693 7.82031C6.70228 7.625 6.87318 7.30762 7.30775 6.7168C7.8351 6.00391 7.85463 5.125 7.37123 4.10449C6.98549 3.29883 6.3556 2.52734 5.79896 1.84863L5.75013 1.79004C5.27162 1.2041 4.71498 0.911133 4.09486 0.911133C3.40638 0.911133 2.8351 1.28223 2.53236 1.47754C2.50795 1.49219 2.48353 1.51172 2.45912 1.52637C1.78041 1.95605 1.28724 2.54688 1.1017 3.14746C0.823376 4.05078 0.63783 5.22266 1.97084 7.65918C3.12318 9.76856 4.1681 11.1846 5.82826 12.8887C7.39076 14.4902 8.08412 15.0078 9.63685 16.1309C11.3654 17.3809 13.0255 18.0986 14.1876 18.0986C15.2667 18.0986 16.1163 18.0986 17.3273 16.6387C18.5968 15.1055 18.0695 14.168 17.3078 13.3818Z" fill="currentColor"/>
</symbol><symbol viewBox="0 0 26 26" fill="none" id="whatsapp" xmlns="http://www.w3.org/2000/svg">
<path d="M13.0033 0H12.9968C5.82889 0 1.70575e-05 5.8305 1.70575e-05 13C-0.00443398 15.7381 0.862322 18.4067 2.47489 20.6196L0.854767 25.4491L5.85164 23.8518C7.97124 25.258 10.4596 26.0055 13.0033 26C20.1711 26 26 20.1679 26 13C26 5.83213 20.1711 0 13.0033 0ZM20.5676 18.3576C20.254 19.2432 19.0093 19.9777 18.0164 20.1922C17.3371 20.3369 16.4499 20.4523 13.4631 19.214C9.64277 17.6313 7.18252 13.7491 6.99077 13.4972C6.80714 13.2454 5.44702 11.4416 5.44702 9.57613C5.44702 7.71063 6.39439 6.80225 6.77627 6.41225C7.08989 6.09212 7.60827 5.94587 8.10552 5.94587C8.26639 5.94587 8.41102 5.954 8.54102 5.9605C8.92289 5.97675 9.11464 5.9995 9.36652 6.60238C9.68014 7.358 10.4439 9.2235 10.5349 9.41525C10.6275 9.607 10.7201 9.867 10.5901 10.1189C10.4683 10.3789 10.361 10.4942 10.1693 10.7153C9.97752 10.9362 9.79552 11.1053 9.60377 11.3425C9.42827 11.5489 9.23002 11.7699 9.45102 12.1518C9.67202 12.5255 10.4358 13.7719 11.5603 14.7729C13.0114 16.0647 14.1879 16.4775 14.6088 16.653C14.9224 16.783 15.2961 16.7521 15.5253 16.5084C15.8161 16.1947 16.1753 15.6748 16.5409 15.1629C16.8009 14.7956 17.1291 14.7501 17.4736 14.8801C17.8246 15.002 19.682 15.9201 20.0639 16.1102C20.4458 16.302 20.6976 16.393 20.7903 16.5539C20.8813 16.7148 20.8813 17.4704 20.5676 18.3576Z" fill="currentColor"/>
</symbol></svg>